HIERARCHY
ROOT Hips
{
    OFFSET 0.000000 0.000000 0.000000
    CHANNELS 6 Xposition Yposition Zposition Zrotation Xrotation Yrotation
    JOINT Spine
    {
        OFFSET -0.000000 73.129562 0.000000
        CHANNELS 3 Zrotation Xrotation Yrotation
        JOINT Spine1
        {
            OFFSET -0.000000 165.477310 0.000000
            CHANNELS 3 Zrotation Xrotation Yrotation
            JOINT Neck
            {
                OFFSET -0.000000 183.313782 0.000000
                CHANNELS 3 Zrotation Xrotation Yrotation
                JOINT Head
                {
                    OFFSET -0.000000 138.232712 17.836477
                    CHANNELS 3 Zrotation Xrotation Yrotation
                    End Site
                    {
                        OFFSET -0.000000 178.364777 0.000000
                    }
                }
            }
            JOINT LeftShoulder
            {
                OFFSET 35.598560 149.571365 -3.890343
                CHANNELS 3 Zrotation Xrotation Yrotation
                JOINT LeftArm
                {
                    OFFSET 103.175423 0.000000 0.000000
                    CHANNELS 3 Zrotation Xrotation Yrotation
                    JOINT LeftForeArm
                    {
                        OFFSET 267.561951 0.000000 0.000000
                        CHANNELS 3 Zrotation Xrotation Yrotation
                        JOINT LeftHand
                        {
                            OFFSET 239.300095 0.000000 0.000000
                            CHANNELS 3 Zrotation Xrotation Yrotation
                            End Site
                            {
                                OFFSET 133.773590 0.000000 0.000000
                            }
                        }
                    }
                }
            }
            JOINT RightShoulder
            {
                OFFSET -35.671310 149.571365 -3.890343
                CHANNELS 3 Zrotation Xrotation Yrotation
                JOINT RightArm
                {
                    OFFSET -103.175423 0.000000 0.000000
                    CHANNELS 3 Zrotation Xrotation Yrotation
                    JOINT RightForeArm
                    {
                        OFFSET -267.561951 0.000000 0.000000
                        CHANNELS 3 Zrotation Xrotation Yrotation
                        JOINT RightHand
                        {
                            OFFSET -239.300095 0.000000 0.000000
                            CHANNELS 3 Zrotation Xrotation Yrotation
                            End Site
                            {
                                OFFSET -133.773590 0.000000 0.000000
                            }
                        }
                    }
                }
            }
        }
    }
    JOINT LeftUpLeg
    {
        OFFSET 89.182388 0.000000 0.000000
        CHANNELS 3 Zrotation Xrotation Yrotation
        JOINT LeftLeg
        {
            OFFSET -0.000000 -464.167633 0.000000
            CHANNELS 3 Zrotation Xrotation Yrotation
            JOINT LeftFoot
            {
                OFFSET -0.000000 -372.878357 0.000000
                CHANNELS 3 Zrotation Xrotation Yrotation
                JOINT LeftToeBase
                {
                    OFFSET -0.000000 -57.968548 133.773590
                    CHANNELS 3 Zrotation Xrotation Yrotation
                    End Site
                    {
                        OFFSET -0.000000 0.000000 35.672955
                    }
                }
            }
        }
    }
    JOINT RightUpLeg
    {
        OFFSET -89.182388 0.000000 0.000000
        CHANNELS 3 Zrotation Xrotation Yrotation
        JOINT RightLeg
        {
            OFFSET -0.000000 -464.167633 0.000000
            CHANNELS 3 Zrotation Xrotation Yrotation
            JOINT RightFoot
            {
                OFFSET -0.000000 -372.878357 0.000000
                CHANNELS 3 Zrotation Xrotation Yrotation
                JOINT RightToeBase
                {
                    OFFSET -0.000000 -57.968548 133.773590
                    CHANNELS 3 Zrotation Xrotation Yrotation
                    End Site
                    {
                        OFFSET -0.000000 0.000000 35.672955
                    }
                }
            }
        }
    }
}
MOTION
Frames:    10
Frame Time:    0.008333
-39.264175    828.617676    -73.527084    -9.362485    3.772072    86.394295    -0.799453    -8.308857    -6.586908    13.287670    0.194485    -2.183454    -13.544578    23.526951    -22.900282    37.365044    -5.655227    -30.775827    15.783998    -2.113455    -9.888510    -10.084218    16.000647    1.475509    16.126839    -25.376049    7.377697    -41.611713    -19.576019    -19.077183    -5.767206    8.319224    -5.699628    32.147381    27.010143    4.481604    -15.806884    -12.804607    62.291542    5.478150    -3.071700    4.308745    7.642063    -16.940107    -3.619545    -11.843735    28.183622    17.513136    -0.420408    -13.015904    18.558100    0.000000    0.000000    0.000000    -9.204304    -21.890213    3.860440    7.011941    37.241180    -2.142194    4.816210    -20.717304    -0.318730    0.000000    0.000000    0.000000    
-39.282776    829.602356    -76.421753    -9.350365    3.748818    86.159081    -0.719996    -8.377104    -6.567858    13.044875    0.137789    -2.171905    -13.584341    23.661779    -22.857550    37.260143    -6.141595    -30.590845    15.844101    -2.074347    -9.945189    -10.089455    15.851050    1.533163    16.095434    -25.346113    7.315722    -41.714893    -19.517454    -19.072594    -6.001670    8.160545    -5.664358    31.860477    26.670786    4.236375    -15.859107    -14.928849    63.419811    8.638140    -4.836178    4.976118    7.374183    -16.428638    -3.473512    -11.464264    27.182369    17.339138    -0.257307    -12.966721    18.792147    0.000000    0.000000    0.000000    -9.297194    -21.797382    4.020948    6.870067    36.858131    -2.153496    5.172520    -20.282639    -0.055302    0.000000    0.000000    0.000000    
-39.383514    830.553833    -79.387405    -9.335627    3.725735    85.953102    -0.627646    -8.412775    -6.563764    12.771969    0.041025    -2.161475    -13.607492    23.790405    -22.840275    37.137981    -6.595038    -30.435654    15.932245    -2.042466    -10.002225    -10.180874    16.048317    1.519741    16.275242    -25.463629    7.513753    -41.834507    -19.615444    -19.181955    -6.285287    7.911896    -5.524526    31.654026    25.972780    3.803136    -15.525960    -16.638391    64.802956    11.384775    -6.394462    5.350902    7.075106    -15.963676    -3.308749    -11.111508    26.194483    17.580900    0.139125    -12.844922    18.752934    0.000000    0.000000    0.000000    -9.368559    -21.707424    4.172003    6.639104    36.491230    -2.216979    5.587920    -19.841974    0.296134    0.000000    0.000000    0.000000    
-39.529934    831.563477    -82.415581    -9.321772    3.716460    85.728027    -0.553114    -8.391126    -6.548354    12.533667    -0.156077    -2.136413    -13.685002    23.952478    -22.791655    37.026505    -7.025695    -30.280550    15.993436    -1.928582    -10.029317    -10.094349    15.517396    1.536042    16.022108    -25.284056    7.244921    -41.708488    -19.466999    -18.999674    -6.627368    7.802091    -5.451141    31.364004    25.138371    3.585358    -15.102584    -18.232187    66.180237    13.876908    -7.900991    5.761512    6.783536    -15.529304    -3.147228    -10.844751    25.311028    17.939079    0.573239    -12.714537    18.600164    0.000000    0.000000    0.000000    -9.451995    -21.619455    4.432765    6.484940    36.097031    -2.284151    5.946722    -19.397882    0.503335    0.000000    0.000000    0.000000    
-39.722637    832.511658    -85.533813    -9.299307    3.710006    85.540588    -0.454505    -8.407316    -6.538657    12.208556    -0.271921    -2.123587    -13.700639    24.109720    -22.757624    36.968216    -7.509964    -30.104542    16.098356    -1.888812    -10.083550    -10.072062    15.407066    1.522957    15.972701    -25.306881    7.217623    -41.744858    -19.483267    -18.984407    -6.878404    7.508218    -5.242629    31.158884    24.701796    3.160121    -15.185997    -20.175390    67.193687    16.474098    -9.465987    6.387363    6.463677    -15.152511    -3.010021    -10.505352    24.537739    17.971706    0.998304    -12.507838    18.632710    0.000000    0.000000    0.000000    -9.556268    -21.514088    4.642297    6.320603    35.694195    -2.273037    6.280796    -18.974422    0.631843    0.000000    0.000000    0.000000    
-39.889099    833.536865    -88.612717    -9.269837    3.678378    85.393608    -0.352406    -8.430954    -6.550949    11.896731    -0.361686    -2.121452    -13.695425    24.261789    -22.760529    36.900234    -8.007377    -29.952982    16.222628    -1.825428    -10.146831    -10.072187    15.347814    1.472244    15.969813    -25.342964    7.286455    -41.778038    -19.508963    -19.024483    -7.150880    7.167119    -5.030814    31.016390    24.546654    2.796886    -15.839023    -22.379175    67.720474    19.254715    -10.947324    7.260269    6.172092    -14.838241    -2.822833    -10.131660    23.947357    17.807760    1.221999    -12.323196    18.687784    0.000000    0.000000    0.000000    -9.627638    -21.396883    4.840409    6.129842    35.308445    -2.333802    6.577054    -18.509024    0.807932    0.000000    0.000000    0.000000    
-40.162926    834.475159    -91.743553    -9.245758    3.642941    85.261223    -0.236155    -8.429471    -6.558531    11.571785    -0.493988    -2.114380    -13.713556    24.422277    -22.769997    36.865479    -8.469263    -29.830477    16.333122    -1.747519    -10.204879    -10.017031    15.170038    1.402003    15.906810    -25.333626    7.287020    -41.790516    -19.509357    -18.980890    -7.435012    7.020916    -4.946615    30.800196    24.042337    2.714276    -16.509802    -24.401005    68.147118    21.971788    -12.213767    8.172843    5.906613    -14.599088    -2.539411    -9.719569    23.466183    17.435518    1.223972    -12.166368    18.732052    0.000000    0.000000    0.000000    -9.699609    -21.288734    5.062936    5.966742    34.922859    -2.566496    6.913170    -18.041945    1.091470    0.000000    0.000000    0.000000    
-40.460125    835.433960    -94.881104    -9.223096    3.619637    85.148544    -0.236411    -8.475403    -6.563408    11.403727    -0.525990    -2.113465    -13.718392    24.493402    -22.826752    36.755100    -8.909561    -29.744284    16.386129    -1.749489    -10.322958    -10.038630    15.385356    1.321584    16.025732    -25.441984    7.527038    -41.934200    -19.583824    -19.119745    -7.755194    6.798790    -4.859708    30.598335    23.977722    2.756689    -17.806263    -26.947477    67.843292    25.124538    -13.652027    9.415811    5.648047    -14.421197    -2.310328    -9.381403    23.146418    17.070559    1.021118    -12.049523    18.734547    0.000000    0.000000    0.000000    -9.795306    -21.156517    5.310465    5.826377    34.501041    -2.665686    7.001002    -17.681540    1.173697    0.000000    0.000000    0.000000    
-40.776939    836.405701    -98.049400    -9.203964    3.598038    85.068008    -0.156994    -8.447852    -6.598946    11.119549    -0.707310    -2.110904    -13.804449    24.626308    -22.812881    36.768063    -9.280207    -29.651386    16.430616    -1.654737    -10.402579    -9.906311    15.170928    1.289831    15.875794    -25.434723    7.417319    -41.852306    -19.609148    -19.007132    -8.045113    6.586020    -4.683323    30.408876    23.539204    2.715957    -18.655863    -29.279715    67.790642    28.161051    -15.087683    10.673625    5.405336    -14.274587    -2.091844    -9.062739    22.883615    16.519415    0.797189    -11.901672    18.900633    0.000000    0.000000    0.000000    -9.881990    -21.039448    5.435845    5.582054    34.125401    -2.582285    7.187581    -17.276352    1.189360    0.000000    0.000000    0.000000    
-41.195004    837.383057    -101.170227    -9.182484    3.555467    84.993263    -0.130635    -8.494904    -6.601501    10.909324    -0.713808    -2.113012    -13.832760    24.645571    -22.868629    36.760529    -9.628985    -29.601114    16.488827    -1.745268    -10.572317    -9.889637    15.311673    1.303557    15.876238    -25.480486    7.478398    -41.841469    -19.661028    -19.023067    -8.334516    6.199534    -4.552320    30.153786    23.204477    2.703435    -19.621622    -31.601959    67.450356    31.043211    -16.477865    11.996866    5.220464    -14.152535    -1.838842    -8.849055    22.668842    15.872936    0.663701    -11.752955    19.189037    0.000000    0.000000    0.000000    -9.940103    -20.899220    5.750073    5.449582    33.676445    -2.916516    7.505326    -16.804892    1.396949    0.000000    0.000000    0.000000    
